# xmcd CD database file
#
# Track frame offsets:
#	150
#	11961
#	22944
#	33118
#	46900
#	59671
#	73523
#	86324
#	98998
#	111038
#	124009
#	137042
#	148732
#	162291
#	173470
#	184733
#	198088
#	209054
#	223689
#	238538
#
# Disc length: 3339 seconds
#
# Revision: 2
# Processed by: cddbd v1.5.2PL0 Copyright (c) Steve Scherf et al.
# Submitted via: CDex 1.51
#
DISCID=170d0914
DTITLE=Various Artist - Nestárnoucí country hity
DYEAR=1900
DGENRE=Country
TTITLE0=I'm Sorry
TTITLE1=Hey Good Lookin'
TTITLE2=Three Cigarettes In An Ashtray
TTITLE3=Love Me Tender
TTITLE4=What I'vegot In Mind
TTITLE5=Crying In The Rain
TTITLE6=9 To 5
TTITLE7=Ever, Never Lovin' You
TTITLE8=Things Aren't Funny Anymore
TTITLE9=You're My Best Friend
TTITLE10=Just A Closer Walk With Thee
TTITLE11=Carolyn
TTITLE12=There Goes My Everything
TTITLE13=You Are My Sunshine
TTITLE14=Crazy Arms
TTITLE15=Tennessee Waltz
TTITLE16=As Soon As I Hang Up The Phone
TTITLE17=Detroit City
TTITLE18=Me And Bobby McGee
TTITLE19=The End Of The World
EXTD=
EXTT0=
EXTT1=
EXTT2=
EXTT3=
EXTT4=
EXTT5=
EXTT6=
EXTT7=
EXTT8=
EXTT9=
EXTT10=
EXTT11=
EXTT12=
EXTT13=
EXTT14=
EXTT15=
EXTT16=
EXTT17=
EXTT18=
EXTT19=
PLAYORDER=
